<svg width="80" height="80" viewBox="0 0 80 80" fill="none" xmlns="http://www.w3.org/2000/svg">
<g style="mix-blend-mode:hard-light">
<path fill-rule="evenodd" clip-rule="evenodd" d="M34.95 20C35.6234 20 36.169 20.4305 36.169 20.9615C36.169 21.0145 36.1634 21.0675 36.1524 21.1198C34.8687 27.1852 34.2267 33.1855 34.2267 39.121C34.2267 45.1097 34.88 51.694 36.187 58.8743C36.2854 59.413 35.8107 59.9127 35.1277 59.99C35.0687 59.9967 35.0093 60 34.95 60C34.1167 60 33.41 59.5177 33.2908 58.8673C31.9858 51.7563 31.3333 45.1743 31.3333 39.121C31.3333 33.1242 31.9736 27.1276 33.2542 21.1309C33.3937 20.4781 34.1103 20 34.95 20Z" fill="#92D2EE"/>
<path d="M21.3333 21.0753C21.3333 20.4814 20.7364 20 20 20C19.2636 20 18.6667 20.4814 18.6667 21.0753V58.9247C18.6667 59.5187 19.2636 60 20 60C20.7364 60 21.3333 59.5187 21.3333 58.9247V21.0753Z" fill="#92D2EE"/>
<path fill-rule="evenodd" clip-rule="evenodd" d="M59.965 20C49.675 20 41.3333 28.9543 41.3333 40C41.3333 51.0457 49.675 60 59.965 60V59.9997C59.9767 59.9997 59.9884 60 60 60C60.7364 60 61.3334 59.403 61.3334 58.6667C61.3334 57.9303 60.7364 57.3333 60 57.3333C59.9884 57.3333 59.9767 57.3333 59.965 57.3337V57.3333C51.3227 57.3333 44 49.754 44 40C44 30.2459 51.3227 22.6667 59.965 22.6667V22.6662C59.9767 22.6665 59.9884 22.6667 60 22.6667C60.7364 22.6667 61.3334 22.0697 61.3334 21.3333C61.3334 20.597 60.7364 20 60 20C59.9884 20 59.9767 20.0002 59.965 20.0005V20Z" fill="white"/>
<path fill-rule="evenodd" clip-rule="evenodd" d="M59.927 31C54.8127 31 50.6667 35.0293 50.6667 40C50.6667 44.9707 54.8127 49 59.927 49V48.9767C59.9547 48.9783 59.9823 48.9793 60.0103 48.9793C60.741 48.9793 61.3333 48.387 61.3333 47.6563C61.3333 46.9257 60.741 46.3333 60.0103 46.3333C59.9823 46.3333 59.9547 46.3343 59.927 46.336V46.3333C56.2133 46.3333 53.3333 43.4267 53.3333 40C53.3333 36.5733 56.2133 33.6667 59.927 33.6667V33.6433C59.9547 33.645 59.9823 33.646 60.0103 33.646C60.741 33.646 61.3333 33.0535 61.3333 32.3229C61.3333 31.5923 60.741 31 60.0103 31C59.9823 31 59.9547 31.0009 59.927 31.0026V31Z" fill="#92D2EE"/>
</g>
</svg>
